<?xml version="1.0" encoding="utf-8"?>
<!-- Generator: Adobe Illustrator 16.0.0, SVG Export Plug-In . SVG Version: 6.00 Build 0)  -->
<!DOCTYPE svg PUBLIC "-//W3C//DTD SVG 1.1//EN" "http://www.w3.org/Graphics/SVG/1.1/DTD/svg11.dtd">
<svg version="1.1" id="Layer_1" xmlns="http://www.w3.org/2000/svg" xmlns:xlink="http://www.w3.org/1999/xlink" x="0px" y="0px"
	 width="62.167px" height="56.5px" viewBox="437.973 60.779 62.167 56.5" enable-background="new 437.973 60.779 62.167 56.5"
	 xml:space="preserve">
<g>
	<g>
		<path fill="#069948" d="M461.94,93.148c-2.035,0-3.685-1.649-3.685-3.685c0-2.034,1.648-3.684,3.685-3.684
			c0.449,0,0.874,0.092,1.271,0.239l5.854-5.726c-1.971-1.536-4.439-2.46-7.128-2.46c-6.413,0-11.63,5.218-11.63,11.63
			c0,6.413,5.217,11.631,11.63,11.631c2.926,0,5.594-1.095,7.64-2.884l-5.653-5.651C463.352,92.929,462.673,93.148,461.94,93.148z"
			/>
		<path fill="#069948" d="M465.622,89.465c0,0.172-0.026,0.335-0.051,0.5l6.005,6.001c1.258-1.856,1.992-4.095,1.992-6.502
			c0-2.646-0.896-5.08-2.392-7.035l-5.817,5.688C465.525,88.535,465.622,88.988,465.622,89.465z"/>
		<path fill="#069948" d="M476.569,89.465c0,3.234-1.066,6.218-2.852,8.643l6.274,6.271c3.352-4.05,5.363-9.246,5.363-14.912
			c0-5.857-2.156-11.209-5.711-15.314l-6.307,6.166C475.355,82.824,476.569,86.004,476.569,89.465z"/>
		<path fill="#069948" d="M461.939,104.095c-8.067,0-14.63-6.563-14.63-14.631c0-8.066,6.563-14.63,14.63-14.63
			c3.527,0,6.767,1.255,9.296,3.342l6.309-6.167c-4.143-3.705-9.608-5.962-15.604-5.962c-12.933,0-23.417,10.484-23.417,23.417
			s10.484,23.416,23.417,23.416c6.187,0,11.808-2.402,15.994-6.319l-6.233-6.229C469.108,102.663,465.692,104.095,461.939,104.095z"
			/>
		<path fill="#069948" d="M479.646,74.151l10.82-10.578l-2.099-2.146L477.543,72.01C478.288,72.677,478.99,73.394,479.646,74.151z"
			/>
		<path fill="#069948" d="M477.934,106.561l10.256,10.25l2.121-2.122l-10.317-10.312
			C479.355,105.15,478.663,105.877,477.934,106.561z"/>
	</g>
	<path fill="none" stroke="#069948" stroke-width="3" stroke-miterlimit="10" d="M487.297,62.701
		c6.907,6.735,11.196,16.144,11.196,26.552c0,10.24-4.149,19.511-10.859,26.221"/>
</g>
</svg>
