<?xml version="1.0" encoding="utf-8"?>
<!-- Generator: Adobe Illustrator 16.0.0, SVG Export Plug-In . SVG Version: 6.00 Build 0)  -->
<!DOCTYPE svg PUBLIC "-//W3C//DTD SVG 1.1//EN" "http://www.w3.org/Graphics/SVG/1.1/DTD/svg11.dtd">
<svg version="1.1" id="Layer_1" xmlns="http://www.w3.org/2000/svg" xmlns:xlink="http://www.w3.org/1999/xlink" x="0px" y="0px"
	 width="47.083px" height="47.163px" viewBox="387.474 88.779 47.083 47.163" enable-background="new 387.474 88.779 47.083 47.163"
	 xml:space="preserve">
<g>
	<path fill="#069948" d="M411.098,88.974c-0.438,0-0.872,0.014-1.304,0.038h2.5v3.758h-2.5v-3.758
		c-5.974,0.328-11.349,2.896-15.3,6.882l2.771,2.479l-1.667,1.863l-2.765-2.473c-2.963,3.701-4.828,8.32-5.089,13.366h3.69v2.5
		h-3.688c0.314,5.887,2.807,11.192,6.685,15.133l2.484-2.729l1.849,1.684l-2.488,2.731c3.722,3.052,8.4,4.979,13.519,5.259v-3.72
		h2.5v3.728c12.359-0.623,22.189-10.842,22.189-23.355C434.485,99.444,424.014,88.974,411.098,88.974z M420.556,113.995
		c-0.397,2.531-1.759,4.755-3.831,6.263c-1.295,0.943-2.771,1.53-4.315,1.744l-0.364,2.313l-5.853-4.73l7.022-2.704l-0.309,1.953
		c0.728-0.21,1.422-0.541,2.052-1c1.424-1.036,2.358-2.564,2.632-4.305c0.273-1.739-0.146-3.481-1.183-4.904
		c-1.035-1.424-2.564-2.358-4.305-2.632c-1.738-0.272-3.479,0.146-4.904,1.182c-1.424,1.036-2.357,2.565-2.632,4.306
		c-0.182,1.156-0.054,2.34,0.37,3.421c0.302,0.771-0.078,1.642-0.849,1.944c-0.771,0.304-1.643-0.079-1.944-0.85
		c-0.618-1.577-0.805-3.3-0.541-4.981c0.399-2.532,1.759-4.757,3.831-6.265s4.607-2.118,7.137-1.721
		c2.531,0.398,4.756,1.759,6.264,3.831C420.344,108.93,420.955,111.464,420.556,113.995z M425.855,94.262l1.85,1.684l-2.531,2.778
		l-1.849-1.685L425.855,94.262z M427.626,128.893l-2.801-2.506l1.668-1.863l2.8,2.506L427.626,128.893z M430.654,113.63v-2.5h3.759
		v2.5H430.654z"/>
	<path fill="#069948" d="M412.294,135.748v-0.029c-0.396,0.02-0.795,0.029-1.196,0.029H412.294z"/>
	<path fill="#069948" d="M409.794,135.748h1.304c-0.438,0-0.872-0.014-1.304-0.038V135.748z"/>
	<path fill="#069948" d="M387.744,111.129h-0.067v2.5h0.07c-0.022-0.42-0.036-0.843-0.036-1.269
		C387.711,111.948,387.722,111.537,387.744,111.129z"/>
	<path fill="#069948" d="M394.385,128.813l1.849,1.684l0.043-0.047c-0.646-0.529-1.26-1.094-1.845-1.688L394.385,128.813z"/>
	<path fill="#069948" d="M394.464,95.867l-1.667,1.863l0.037,0.033c0.521-0.652,1.074-1.277,1.661-1.869L394.464,95.867z"/>
</g>
</svg>
