<?xml version="1.0" encoding="utf-8"?>
<!-- Generator: Adobe Illustrator 16.0.0, SVG Export Plug-In . SVG Version: 6.00 Build 0)  -->
<!DOCTYPE svg PUBLIC "-//W3C//DTD SVG 1.1//EN" "http://www.w3.org/Graphics/SVG/1.1/DTD/svg11.dtd">
<svg version="1.1" id="Layer_1" xmlns="http://www.w3.org/2000/svg" xmlns:xlink="http://www.w3.org/1999/xlink" x="0px" y="0px"
	 width="76.75px" height="51px" viewBox="326.14 62.195 76.75 51" enable-background="new 326.14 62.195 76.75 51"
	 xml:space="preserve">
<g>
	<path fill="#069948" d="M390.555,88.957c0,3.607-2.925,6.532-6.532,6.532l0,0c-3.606,0-6.532-2.924-6.532-6.532l0,0
		c0-3.606,2.926-6.53,6.532-6.53l0,0C387.63,82.425,390.555,85.35,390.555,88.957L390.555,88.957z"/>
	<path fill="#069948" d="M378.741,95.173c-7.677,2.189-13.053,9.183-13.053,17.561h36.666c0-8.306-5.264-15.242-12.837-17.494
		c0,0-1.308,1.594-5.392,1.844C380.252,97.042,378.741,95.173,378.741,95.173z"/>
</g>
<g>
	<path fill="#069948" d="M351.887,88.957c0,3.607-2.925,6.532-6.532,6.532l0,0c-3.606,0-6.532-2.924-6.532-6.532l0,0
		c0-3.606,2.926-6.53,6.532-6.53l0,0C348.962,82.425,351.887,85.35,351.887,88.957L351.887,88.957z"/>
	<path fill="#069948" d="M340.073,95.173c-7.676,2.189-13.052,9.183-13.052,17.561h36.666c0-8.306-5.264-15.242-12.837-17.494
		c0,0-1.308,1.594-5.392,1.844C341.584,97.042,340.073,95.173,340.073,95.173z"/>
</g>
<path fill="#069948" d="M374.394,72.201c0,5.031-4.079,9.111-9.111,9.111l0,0c-5.031,0-9.11-4.08-9.11-9.111l0,0
	c0-5.032,4.079-9.112,9.11-9.112l0,0C370.314,63.089,374.394,67.169,374.394,72.201L374.394,72.201z"/>
<g>
	<path fill="#069948" d="M378.052,83.411c-1.855-1.305-3.216-2.088-5.432-2.771c-1.477,0.877-4.09,2.199-6.994,2.276
		c-3.2,0.085-6.723-1.188-8.048-2.035c-2.229,0.743-3.378,1.5-5.226,2.874c1.207,2.157,3.104,6.495-0.177,9.787
		c4.625,1.435,10.573,5.458,12.512,11.833c0.813-2.625,4.729-9.743,12.896-11.684C376.103,90.55,374.26,88.029,378.052,83.411z"/>
</g>
</svg>
